<?xml version="1.0" encoding="utf-8"?>
<!-- Generator: Adobe Illustrator 24.2.1, SVG Export Plug-In . SVG Version: 6.00 Build 0)  -->
<svg version="1.1" id="Layer_1" xmlns="http://www.w3.org/2000/svg" xmlns:xlink="http://www.w3.org/1999/xlink" x="0px" y="0px"
	 viewBox="0 0 225 206" style="enable-background:new 0 0 225 206;" xml:space="preserve">
<style type="text/css">
	.st0{fill:#F4DD7C;}
	.st1{fill:none;}
	.st2{fill:#F37B7D;}
</style>
<g>
	<g>
		<path class="st0" d="M184.77,175.69c-12.03-2.54-24.06-5.05-36.06-7.7c-1.27-0.28-2.56-1.15-3.5-2.09
			c-29.03-28.95-57.99-57.96-87.05-86.88c-2.1-2.09-2.92-4.18-2.17-6.92c0.47-1.73,0.92-3.5,1.69-5.1c4-8.26,10.12-14.6,18.07-19.07
			c2.39-1.35,5.17-2.04,7.83-2.85c2.31-0.71,4.11,0.11,5.87,1.87c29.08,29.18,58.24,58.28,87.32,87.46c1.05,1.06,1.86,2.63,2.2,4.09
			c1.61,6.9,3.02,13.86,4.48,20.8c1.12,5.34,2.21,10.7,3.39,16.39C185.75,175.69,185.24,175.77,184.77,175.69z M150.32,162.79
			c3.41,1.29,7.13,1.82,10.77,2.4c0.87,0.14,2.11-0.57,2.83-1.26c3.71-3.55,7.34-7.19,10.89-10.9c0.69-0.72,1.4-1.96,1.26-2.82
			c-0.58-3.63-1.34-7.25-2.3-10.81c-0.95-3.52-4.41-5.38-7.78-4.1c-10,3.8-16.87,10.71-20.17,20.99c-0.16,0.48-0.28,0.96-0.41,1.44
			c-0.18,0.21-0.36,0.42-0.54,0.63C146.67,159.89,148.23,162.02,150.32,162.79z"/>
		<g>
			<path class="st1" d="M173.77,139.4c0.96,3.56,1.72,7.18,2.3,10.81c0.14,0.86-0.57,2.1-1.26,2.82c-3.55,3.71-7.18,7.35-10.89,10.9
				c-0.72,0.69-1.96,1.4-2.83,1.26c-3.64-0.58-7.36-1.11-10.77-2.4c-2.09-0.77-3.65-2.9-5.45-4.43c0.18-0.21,0.36-0.42,0.54-0.63
				c0.13-0.48,0.25-0.96,0.41-1.44c0.53-1.64,1.15-3.18,1.86-4.65c5.51,1.17,11.03,2.33,16.54,3.49c0.47,0.08,0.98,0,2.07,0
				c-1.18-5.69-2.27-11.05-3.39-16.39c-0.13-0.64-0.27-1.28-0.4-1.93c1.12-0.55,2.28-1.06,3.5-1.52
				C169.36,134.02,172.82,135.88,173.77,139.4z"/>
			<g>
				<path class="st2" d="M35.43,51.55c0.47-1.73,0.92-3.5,1.69-5.1c4-8.26,10.12-14.6,18.07-19.07c2.39-1.35,5.17-2.04,7.83-2.85
					c2.31-0.71,4.11,0.11,5.87,1.87c3.45,3.46,6.9,6.91,10.35,10.37c1,1,0.52,2.66-0.83,3.06c-0.02,0.01-0.04,0.01-0.06,0.02
					c-2.66,0.81-5.44,1.5-7.83,2.85c-7.95,4.47-14.07,10.81-18.07,19.07c-0.77,1.6-1.22,3.37-1.69,5.1
					c-0.06,0.21-0.11,0.42-0.14,0.62c-0.27,1.41-2.06,1.89-3.08,0.88c-3.31-3.3-6.61-6.6-9.93-9.9
					C35.5,56.38,34.68,54.29,35.43,51.55z"/>
			</g>
		</g>
	</g>
</g>
</svg>
