<?xml version="1.0" encoding="utf-8"?>
<!-- Generator: Adobe Illustrator 24.2.1, SVG Export Plug-In . SVG Version: 6.00 Build 0)  -->
<svg version="1.1" id="Layer_1" xmlns="http://www.w3.org/2000/svg" xmlns:xlink="http://www.w3.org/1999/xlink" x="0px" y="0px"
	 viewBox="0 0 225 206" style="enable-background:new 0 0 225 206;" xml:space="preserve">
<style type="text/css">
	.st0{fill:#F4DD7C;}
	.st1{fill:#F37B7D;}
</style>
<g>
	<g>
		<g>
			<g>
				<g>
					<g>
						<g>
							<path class="st0" d="M7.88,111.68c0,28.64,26.23,64,36.65,76.91c2.16,2.68,6.23,2.69,8.41,0.03
								c10.44-12.78,36.61-47.72,36.61-76.94c0-22.55-18.28-40.84-40.84-40.84C26.16,70.84,7.88,89.12,7.88,111.68z M18.94,112.83
								c0-16.44,13.33-29.77,29.77-29.77s29.77,13.33,29.77,29.77S65.15,142.6,48.71,142.6S18.94,129.27,18.94,112.83z"/>
						</g>
					</g>
				</g>
				<g>
					<g>
						<g>
							<path class="st0" d="M191.17,25.4c6.79-5.23,13.57-10.47,20.4-15.65c0.7-0.53,1.69-0.93,2.55-0.93l-55.14,0.11
								c0,0.74,0,1.46,0,2.17c0,22.04-0.02,44.09,0.04,66.13c0,1.96-0.44,3.06-2.39,4.03c-5.3,2.62-8.45,7.08-9.84,12.86l0.01,6.84
								c1.41,5.65,4.51,10.03,9.66,12.77c9.26,4.92,20.61,1.16,25.17-8.23c4.5-9.28,0.47-20.49-9.01-24.74
								c-1.4-0.63-1.9-1.31-1.89-2.84c0.07-10.14,0.04-20.28,0.05-30.42c0-0.53,0.07-1.06,0.13-1.87c13.75,0,27.43,0,41.11,0
								c0.04-0.15,0.09-0.3,0.13-0.46c-7.68-5.91-15.35-11.83-23.26-17.93C189.73,26.55,190.44,25.96,191.17,25.4z M171.62,97.54
								c-0.04,3.71-2.93,6.53-6.66,6.49c-3.58-0.04-6.46-2.93-6.46-6.5c0-3.67,2.91-6.61,6.57-6.63
								C168.7,90.89,171.66,93.89,171.62,97.54z"/>
						</g>
					</g>
				</g>
				<g>
					<g>
						<path class="st1" d="M66.08,191.15c0-3.44,0-6.82,0-10.36c4.76,0,9.36,0,14.21,0c0,3.38,0,6.8,0,10.38L66.08,191.15z"/>
					</g>
					<g>
						<path class="st1" d="M85.67,191.17c0-3.42,0-6.8,0-10.36c4.76,0,9.35,0,14.21,0c0,3.37,0,6.8,0,10.36H85.67z"/>
					</g>
					<g>
						<path class="st1" d="M105.31,191.17c0-3.47,0-6.91,0-10.64c4.68,0,9.2,0,14.01,0c0.16,3.22,0.33,6.64,0.51,10.31
							L105.31,191.17z"/>
					</g>
					<g>
						<path class="st1" d="M137.87,132.83c-4.71-1.41-9.16-2.75-13.86-4.17c-0.93,3.46-1.82,6.76-2.78,10.33
							c4.53,1.37,8.91,2.69,13.5,4.07C135.78,139.64,136.78,136.37,137.87,132.83z"/>
					</g>
					<g>
						<path class="st1" d="M124.6,179.91c0.21,3.58,0.41,6.94,0.63,10.68c4.87-0.41,9.6-0.8,14.53-1.21
							c-0.45-3.71-0.87-7.1-1.3-10.65C133.81,179.13,129.38,179.51,124.6,179.91z"/>
					</g>
					<g>
						<path class="st1" d="M105.28,100.19c1.98,3.07,3.82,5.9,5.56,8.59c3.88-1.32,7.57-2.58,11.51-3.92
							c-0.52-3.23-1.06-6.62-1.63-10.17C115.16,95.58,110.1,97.12,105.28,100.19z"/>
					</g>
					<g>
						<path class="st1" d="M143.12,134.34c-1.21,3.63-2.28,6.83-3.38,10.16c4.11,1.67,8.15,3.31,12.43,5.05
							c1.57-2.97,3.19-6.05,5-9.49C152.44,138.13,147.9,136.29,143.12,134.34z"/>
					</g>
					<g>
						<path class="st1" d="M100.93,129.79c4.24,4.3,9.39,6.22,15.08,7.72c0.97-3.37,1.91-6.65,2.83-9.87
							c-3.48-1.56-6.84-3.07-10.52-4.71C106.13,124.96,103.61,127.3,100.93,129.79z"/>
					</g>
					<g>
						<path class="st1" d="M162.21,143.31c-2.08,3-4,5.78-5.81,8.39c2.21,2.6,4.36,5.13,6.84,8.05c2.69-0.61,6.03-1.37,9.62-2.18
							C171.36,151.2,167.33,147.03,162.21,143.31z"/>
					</g>
					<g>
						<path class="st1" d="M145.29,188.8c5.22-1.45,10.08-2.79,15.16-4.2c-1.69-3.63-3.13-6.74-4.53-9.76
							c-4.18,1.13-8.15,2.2-12.35,3.33C144.11,181.52,144.66,184.91,145.29,188.8z"/>
					</g>
					<g>
						<path class="st1" d="M100.05,104.74c-4.61,5.77-4.85,11.85-2.98,18.57c3.44-1.16,6.69-2.25,9.49-3.2
							c0.33-3.08,0.63-5.83,0.99-9.21C105.52,109.24,102.87,107.06,100.05,104.74z"/>
					</g>
					<g>
						<path class="st1" d="M159.81,173.27c1.76,2.15,3.94,4.81,6.17,7.52c5.19-4.37,7.12-9.91,7.3-16.5
							c-3.58-0.16-7-0.32-10.02-0.45C162.1,166.99,161.06,169.85,159.81,173.27z"/>
					</g>
					<g>
						<path class="st1" d="M141.02,94.23c-4.75,0-9.27,0-13.96,0c0,3.5,0,6.92,0,10.5c4.63,0,9.21,0,13.96,0
							C141.02,101.27,141.02,97.86,141.02,94.23z"/>
					</g>
				</g>
			</g>
		</g>
	</g>
</g>
</svg>
