<svg xmlns="http://www.w3.org/2000/svg" viewBox="0 0 167.13 166.68"><defs><style>.cls-1{fill:#f4f4f4;}.cls-2{fill:#f4dd7c;}.cls-3{fill:#f37b7d;}</style></defs><g id="Layer_2" data-name="Layer 2"><g id="Layer_1-2" data-name="Layer 1"><path class="cls-1" d="M119.06,18.65c0-11.31-8-18.5-20.24-18.51C79.73.13,40.62.46,21.54,0,9.88-.26-.25,7.47,0,20.06.42,41.17.12,62.29.12,83.4c0,21.51,0,43,0,64.54,0,11.47,8,18.72,20.39,18.73,19.31,0,58.62,0,77.92,0,12.45,0,20.6-7.42,20.62-18.95Q119.13,83.19,119.06,18.65Z"/><path class="cls-2" d="M119.06,18.65c0-11.31-8-18.5-20.24-18.51C79.73.13,40.62.46,21.54,0,9.88-.26-.25,7.47,0,20.06.42,41.17.12,62.29.12,83.4c0,21.51,0,43,0,64.54,0,11.47,8,18.72,20.39,18.73,19.31,0,58.62,0,77.92,0,12.45,0,20.6-7.42,20.62-18.95Q119.13,83.19,119.06,18.65ZM52.14,10.32H73a2.7,2.7,0,1,1,0,5.4H52.14a2.7,2.7,0,0,1,0-5.4Zm-7.11,0a2.83,2.83,0,1,1-2.83,2.83A2.83,2.83,0,0,1,45,10.29ZM62.55,162.47A8.43,8.43,0,1,1,71,154,8.43,8.43,0,0,1,62.55,162.47ZM110,138.15H10.25V28.74H110Z"/><path class="cls-1" d="M167.1,59.68c0-8.17-5.78-13.37-14.63-13.38-13.8,0-27.61.23-41.4-.09C102.64,46,95.32,51.6,95.5,60.7c.31,15.26.08,30.53.08,45.79,0,15.55,0,31.1,0,46.65,0,8.29,5.77,13.53,14.74,13.54H152.2c9,0,14.89-5.36,14.9-13.7Q167.16,106.33,167.1,59.68Z"/><path class="cls-3" d="M167.1,59.68c0-8.17-5.78-13.37-14.63-13.38-13.8,0-27.61.23-41.4-.09C102.64,46,95.32,51.6,95.5,60.7c.31,15.26.08,30.53.08,45.79,0,15.55,0,31.1,0,46.65,0,8.29,5.77,13.53,14.74,13.54H152.2c9,0,14.89-5.36,14.9-13.7Q167.16,106.33,167.1,59.68Zm-43.31-6h15a1.95,1.95,0,0,1,0,3.9h-15a1.95,1.95,0,0,1,0-3.9Zm-5.15,0a2,2,0,1,1-2,2A2,2,0,0,1,118.64,53.63Zm12.67,110a6.1,6.1,0,1,1,6.1-6.1A6.1,6.1,0,0,1,131.31,163.64Zm29.23-17.59H102.9V67h57.64Z"/></g></g></svg>