<?xml version="1.0" encoding="utf-8"?>
<!-- Generator: Adobe Illustrator 24.2.1, SVG Export Plug-In . SVG Version: 6.00 Build 0)  -->
<svg version="1.1" id="Layer_1" xmlns="http://www.w3.org/2000/svg" xmlns:xlink="http://www.w3.org/1999/xlink" x="0px" y="0px"
	 viewBox="0 0 800 290" style="enable-background:new 0 0 800 290;" xml:space="preserve">
<style type="text/css">
	.st0{fill:#DFE9E6;}
	.st1{fill:#F1F2F2;}
	.st2{fill:#F6B762;}
	.st3{fill:#A4D8C3;}
	.st4{fill:#ADDCCA;}
	.st5{fill:#C1E4D8;}
	.st6{fill:#262E33;}
	.st7{fill:#1D836C;}
	.st8{fill:#19735C;}
</style>
<rect y="0.59" class="st0" width="800" height="289.41"/>
<g>
	<path class="st1" d="M495.01,150.42c0,0,56.18,0,67.57,0c11.38,0,5.14-13.22-3.3-8.81c-6.98-14.32-30.48-20.56-40.39-5.51
		c-15.06-1.47-24.97,1.84-24.97,8.45C488.77,144.91,489.14,150.42,495.01,150.42z"/>
	<circle class="st2" cx="469.47" cy="188.74" r="55.74"/>
	<path class="st1" d="M538.6,84.73c0,0,44.57,0,53.6,0s4.08-10.49-2.62-6.99c-5.53-11.36-24.18-16.31-32.04-4.37
		c-11.94-1.17-19.81,1.46-19.81,6.7C533.64,80.36,533.93,84.73,538.6,84.73z"/>
	<path class="st1" d="M586.16,96.37c0,0,88.58,0,106.53,0s8.11-20.84-5.21-13.89c-11-22.58-48.05-32.42-63.68-8.68
		c-23.74-2.32-39.37,2.89-39.37,13.32C576.32,87.69,576.9,96.37,586.16,96.37z"/>
	<path class="st1" d="M284.18,115.89c0,0-59.7,0-71.79,0s-5.46-14.05,3.51-9.36c7.41-15.22,32.39-21.85,42.92-5.85
		c16-1.56,26.53,1.95,26.53,8.97C290.81,110.04,290.42,115.89,284.18,115.89z"/>
	<g>
		<path class="st3" d="M478.79,190.85L341.05,244.2L182.04,200C273.29,137.38,450.81,172.51,478.79,190.85z"/>
		<path class="st4" d="M299.31,290c0,0-6.41-49.07,31.38-57.94c9.37-2.2,153.88-42.14,171.2-49.13c20.05-8.09,44.47-9.64,52.91-8.68
			c24.64,1.14,99.57,28.61,116.48,40.38c16.92,11.77,62.49,23.09,75.59,29.83C765.27,253.94,800,290,800,290H299.31z"/>
		<path class="st5" d="M663.84,289.45c0,0-92.52-61.51-135.16-72.99c-58.36-15.7-174.52-17.15-194.31-25.44
			c-22.91-9.59-139.82-17.34-149.45-16.19C125.94,176.64,1.85,290,1.85,290L663.84,289.45z"/>
	</g>
	<g>
		<path class="st3" d="M226.38,200.6c-1.36,0-17.68,15.41-17.68,15.41s33.1,7.71,38.54,6.35C252.68,221,226.38,200.6,226.38,200.6z"
			/>
		<rect x="220.94" y="178.44" class="st6" width="3.17" height="31.74"/>
		<path class="st7" d="M222.45,109.17c0.81,2.82,19.76,45.16,19.76,62.9s-12.5,27.02-19.76,27.02s-19.76-9.27-19.76-27.02
			S221.65,111.99,222.45,109.17z"/>
	</g>
	<g>
		<path class="st3" d="M266.79,185.32c-1.24,0-16.11,14.04-16.11,14.04s30.16,7.02,35.11,5.78
			C290.75,203.9,266.79,185.32,266.79,185.32z"/>
		<rect x="261.83" y="165.12" class="st6" width="2.89" height="28.92"/>
		<path class="st8" d="M263.21,102.01c0.73,2.57,18,41.15,18,57.31s-11.39,24.61-18,24.61s-18-8.45-18-24.61
			S262.47,104.58,263.21,102.01z"/>
	</g>
</g>
</svg>
