<svg xmlns="http://www.w3.org/2000/svg" xmlns:xlink="http://www.w3.org/1999/xlink" viewBox="0 0 264 263"><defs><style>.cls-1,.cls-2{fill:#fff;}.cls-1,.cls-15,.cls-16,.cls-17,.cls-18,.cls-21,.cls-4,.cls-8,.cls-9{fill-rule:evenodd;}.cls-3{mask:url(#mask);}.cls-4{fill:#d0c6ac;}.cls-5{mask:url(#mask-2);}.cls-6{fill:#edb98a;}.cls-7{mask:url(#mask-3);}.cls-8{fill-opacity:0.1;}.cls-9{fill:#e6e6e6;}.cls-10{mask:url(#mask-4-2);}.cls-11{fill:#262e33;}.cls-12{mask:url(#mask-5);}.cls-13{opacity:0.6;}.cls-14,.cls-18{fill-opacity:0.16;}.cls-15{fill:#3a4c5a;}.cls-16{fill:#2f4351;}.cls-17{fill-opacity:0.7;}.cls-19{fill-opacity:0.6;}.cls-20{mask:url(#mask-6-3);}.cls-21{fill:#724133;}</style><mask id="mask" x="0" y="-17" width="264" height="280" maskUnits="userSpaceOnUse"><g id="mask-4"><path id="path-3" class="cls-1" d="M12,143a120,120,0,0,0,240,0h12V-17H0V143Z"/></g></mask><mask id="mask-2" x="0" y="19" width="264" height="244" maskUnits="userSpaceOnUse"><g id="mask-6"><path id="path-5" class="cls-1" d="M156,163.61V182h4a72,72,0,0,1,72,72v9H32v-9a72,72,0,0,1,72-72h4V163.61a56,56,0,0,1-31.69-44.73A12,12,0,0,1,66,107V93A12,12,0,0,1,76,81.17V75h0a56,56,0,0,1,56-56h0a56,56,0,0,1,56,56v6.17A12,12,0,0,1,198,93v14a12,12,0,0,1-10.31,11.88A56,56,0,0,1,156,163.61Z"/></g></mask><mask id="mask-3" x="32" y="19" width="200" height="244" maskUnits="userSpaceOnUse"><g id="mask-6-2" data-name="mask-6"><path id="path-5-2" data-name="path-5" class="cls-1" d="M156,163.61V182h4a72,72,0,0,1,72,72v9H32v-9a72,72,0,0,1,72-72h4V163.61a56,56,0,0,1-31.69-44.73A12,12,0,0,1,66,107V93A12,12,0,0,1,76,81.17V75h0a56,56,0,0,1,56-56h0a56,56,0,0,1,56,56v6.17A12,12,0,0,1,198,93v14a12,12,0,0,1-10.31,11.88A56,56,0,0,1,156,163.61Z"/></g></mask><mask id="mask-4-2" x="0" y="153" width="264" height="110" maskUnits="userSpaceOnUse"><g id="react-mask-2"><path id="react-path-1" class="cls-1" d="M166,182.29a72,72,0,0,1,66,71.76V263H32v-8.95a72,72,0,0,1,67.05-71.83c0,.37,0,.75,0,1.13,0,11.86,15,21.48,33.5,21.48s33.5-9.62,33.5-21.48C166,183,166,182.64,166,182.29Z"/></g></mask><mask id="mask-5" x="32" y="157.93" width="200" height="105.07" maskUnits="userSpaceOnUse"><g id="react-mask-2-2" data-name="react-mask-2"><path id="react-path-1-2" data-name="react-path-1" class="cls-1" d="M166,182.29a72,72,0,0,1,66,71.76V263H32v-8.95a72,72,0,0,1,67.05-71.83c0,.37,0,.75,0,1.13,0,11.86,15,21.48,33.5,21.48s33.5-9.62,33.5-21.48C166,183,166,182.64,166,182.29Z"/></g></mask><mask id="mask-6-3" x="0" y="-17" width="264" height="280" maskUnits="userSpaceOnUse"><g id="react-mask-9"><rect id="react-path-11" class="cls-2" y="-17" width="264" height="280"/></g></mask></defs><g id="Layer_2" data-name="Layer 2"><g id="Layer_1-2" data-name="Layer 1"><g id="Avataaar_Circle" data-name="Avataaar/Circle"><g class="cls-3"><g id="Avataaar"><g id="Body"><path id="path-5-3" data-name="path-5" class="cls-4" d="M156,163.61V182h4a72,72,0,0,1,72,72v9H32v-9a72,72,0,0,1,72-72h4V163.61a56,56,0,0,1-31.69-44.73A12,12,0,0,1,66,107V93A12,12,0,0,1,76,81.17V75h0a56,56,0,0,1,56-56h0a56,56,0,0,1,56,56v6.17A12,12,0,0,1,198,93v14a12,12,0,0,1-10.31,11.88A56,56,0,0,1,156,163.61Z"/><g class="cls-5"><g id="Skin_-03-Brown" data-name="Skin/ðŸ‘¶ðŸ½-03-Brown"><g id="Color"><rect class="cls-6" y="19" width="264" height="244"/></g></g></g><g class="cls-7"><path id="Neck-Shadow" class="cls-8" d="M188,98v23a56,56,0,0,1-112,0v-8a56,56,0,0,0,112,0Z"/></g></g><g id="Clothing_Blazer-_-Shirt" data-name="Clothing/Blazer-+-Shirt"><g id="Shirt"><g id="Clothes"><path id="react-path-1-3" data-name="react-path-1" class="cls-9" d="M166,182.29a72,72,0,0,1,66,71.76V263H32v-8.95a72,72,0,0,1,67.05-71.83c0,.37,0,.75,0,1.13,0,11.86,15,21.48,33.5,21.48s33.5-9.62,33.5-21.48C166,183,166,182.64,166,182.29Z"/></g><g class="cls-10"><g id="Color_Palette_Black" data-name="Color/Palette/Black"><g id="_Color" data-name="ðŸ–Color"><rect class="cls-11" y="153" width="264" height="110"/></g></g></g><g class="cls-12"><g id="Shadowy" class="cls-13"><g id="Hola-_" data-name="Hola-ðŸ‘‹ðŸ¼"><ellipse class="cls-14" cx="132.5" cy="184.85" rx="39.64" ry="26.91"/></g></g></g></g><g id="Blazer"><path id="Saco" class="cls-15" d="M100.78,182.12A72,72,0,0,0,32,254.05h0V263h69.36A155.05,155.05,0,0,1,96,221.5,157.11,157.11,0,0,1,100.78,182.12ZM163.64,263H232v-8.95a72,72,0,0,0-67.77-71.88A156.78,156.78,0,0,1,169,221.5,155.05,155.05,0,0,1,163.64,263Z"/><path id="Pocket-hanky" class="cls-9" d="M181,239l9.56-7.17h0a4,4,0,0,1,4.85,0L202,237Z"/><path id="Wing" class="cls-16" d="M101,181q-6,29,5,82H90L76,227l6-9-6-6,19-30A21.66,21.66,0,0,1,101,181Z"/><path id="Wing-2" data-name="Wing" class="cls-16" d="M163,181q6,29-5,82h16l14-36-6-9,6-6-19-30A21.66,21.66,0,0,0,163,181Z"/></g></g><g id="Face"><g id="Mouth_Default" data-name="Mouth/Default"><path id="Mouth" class="cls-17" d="M118,132a14,14,0,0,0,14,14h0a14,14,0,0,0,14-14"/></g><g id="Nose_Default" data-name="Nose/Default"><path id="Nose" class="cls-18" d="M120,113c0,4.42,5.37,8,12,8h0c6.63,0,12-3.58,12-8"/></g><g id="Eyes_Default-_" data-name="Eyes/Default-ðŸ˜€"><circle id="Eye" class="cls-19" cx="106" cy="95" r="6"/><circle id="Eye-2" data-name="Eye" class="cls-19" cx="158" cy="95" r="6"/></g><g id="Eyebrow_Outline_Default" data-name="Eyebrow/Outline/Default"><g id="I-Browse"><path id="Eyebrow" class="cls-19" d="M91.63,82.16c3.92-5.51,14.65-8.6,23.89-6.33a2,2,0,1,0,1-3.88c-10.74-2.64-23.17.94-28.11,7.89a2,2,0,0,0,3.26,2.32Z"/><path id="Eyebrow-2" data-name="Eyebrow" class="cls-19" d="M172.37,82.16c-3.91-5.51-14.65-8.6-23.89-6.33a2,2,0,0,1-1-3.88c10.74-2.64,23.17.94,28.11,7.89a2,2,0,0,1-3.26,2.32Z"/></g></g></g><g id="Top"><g class="cls-20"><g id="Top_Short-Hair_Short-Flat" data-name="Top/Short-Hair/Short-Flat"><g id="Short-Hair"><path id="react-path-10" class="cls-21" d="M179.15,22.92a84.69,84.69,0,0,0-9.08-7.61c-.69-.53-1.39-1.05-2.06-1.6a10.65,10.65,0,0,1-1.91-1.66c-.45-1-.18-.22-.12-1.4.08-1.5,3.13-5.73.85-6.7-1-.43-2.79.71-3.75,1.08a58.24,58.24,0,0,1-5.73,1.9c.93-1.85,2.71-5.57-.63-4.58-2.61.78-5,2.77-7.64,3.71.86-1.42,4.32-5.81,1.19-6.06-1-.07-3.8,1.75-4.85,2.14a55,55,0,0,1-9.63,2.51c-11.2,2-24.29,1.45-34.65,6.54-8,3.93-15.88,10-20.49,17.8-4.45,7.48-6.11,15.67-7,24.25a120.88,120.88,0,0,0-.42,19.12c.1,2.07.34,11.61,3.34,8.72C78,79.64,78,73.83,78.4,71.86a92.73,92.73,0,0,1,2.72-11.64c2.21-6.68,4.81-13.79,10.31-18.39,3.52-2.95,6-6.94,9.38-9.92,1.51-1.34.36-1.2,2.79-1,1.64.12,3.29.16,4.93.2,3.79.1,7.59.08,11.39.09,7.65,0,15.26.14,22.9-.26,3.39-.18,6.8-.28,10.18-.59,1.9-.18,5.25-1.39,6.81-.46s2.9,3.61,3.93,4.75a61,61,0,0,0,8.12,6.92c5.9,4.57,8.87,10.33,10.66,17.48s1.29,13.75,3.49,20.76c.39,1.24,1.42,3.36,2.69,1.46a14.27,14.27,0,0,0,.17-3.42c0-4.52,1.14-7.91,1.13-12.46C189.94,51.53,189.5,33.49,179.15,22.92Z"/></g></g></g></g></g></g></g></g></g></svg>